<?xml version="1.0" standalone="no"?>
<!DOCTYPE svg PUBLIC "-//W3C//DTD SVG 20010904//EN"
 "http://www.w3.org/TR/2001/REC-SVG-20010904/DTD/svg10.dtd">
<svg version="1.0" xmlns="http://www.w3.org/2000/svg"
 width="1128.000000pt" height="990.000000pt" viewBox="0 0 1128.000000 990.000000"
 preserveAspectRatio="xMidYMid meet">

<g transform="translate(0.000000,990.000000) scale(0.100000,-0.100000)"
fill="#000000" stroke="none">
<path d="M5105 9878 c-498 -56 -984 -286 -1348 -638 -582 -561 -830 -1373
-662 -2170 105 -499 408 -993 805 -1313 338 -273 722 -437 1185 -509 109 -16
3564 -24 3735 -8 371 35 677 177 935 435 220 219 361 486 421 795 27 143 25
419 -5 560 -99 466 -379 838 -789 1049 -359 184 -795 216 -1178 86 -88 -30
-242 -102 -292 -137 l-32 -23 -4 -230 c-3 -182 -8 -256 -25 -354 -62 -342
-180 -639 -362 -911 -114 -169 -153 -210 -83 -87 150 264 252 590 285 905 15
142 6 461 -15 596 -78 488 -308 939 -656 1286 -372 373 -872 613 -1392 669
-114 13 -409 12 -523 -1z m457 -501 c189 -69 331 -233 373 -432 18 -88 18
-132 0 -220 -49 -229 -223 -402 -455 -451 -245 -52 -510 81 -620 311 -44 93
-60 159 -60 253 1 256 187 493 436 557 88 22 240 14 326 -18z m-1210 -880 c90
-32 153 -75 225 -150 178 -185 209 -462 76 -686 -97 -162 -304 -281 -493 -281
-139 0 -297 68 -399 170 -228 228 -229 586 -2 810 73 73 174 131 267 155 88
22 240 14 326 -18z m2363 18 c299 -76 493 -374 431 -665 -50 -234 -222 -406
-456 -456 -270 -57 -558 111 -650 379 -27 80 -36 207 -21 289 42 215 220 402
433 454 73 17 192 17 263 -1z m-1980 -1420 c224 -48 404 -225 451 -444 19 -91
17 -164 -6 -256 -76 -297 -374 -485 -672 -424 -29 6 -90 29 -136 50 -284 136
-400 475 -261 767 47 98 152 203 253 253 133 65 242 81 371 54z m1500 0 c217
-46 395 -220 446 -435 18 -77 15 -203 -5 -274 -31 -104 -74 -176 -155 -257
-114 -113 -245 -169 -396 -169 -159 0 -291 56 -406 170 -116 115 -169 243
-169 405 0 361 334 634 685 560z"/>
<path d="M5281 9289 c-24 -5 -70 -21 -103 -36 l-60 -28 85 3 c141 6 241 -31
343 -130 109 -104 161 -254 137 -395 -17 -96 -71 -198 -138 -262 -61 -58 -50
-60 49 -7 83 43 148 111 193 202 35 71 38 85 41 178 3 79 -1 114 -16 162 -70
223 -300 359 -531 313z"/>
<path d="M4090 8413 c-41 -7 -123 -35 -151 -52 -25 -15 -23 -16 56 -13 142 6
254 -38 350 -139 177 -185 175 -461 -5 -640 -65 -66 -57 -69 42 -17 81 43 152
117 195 205 33 67 37 83 41 176 3 86 1 112 -18 166 -40 119 -123 217 -231 272
-75 38 -195 56 -279 42z"/>
<path d="M6491 8409 c-24 -5 -70 -21 -103 -36 l-60 -28 86 4 c143 5 248 -36
353 -140 99 -98 149 -250 126 -386 -17 -96 -71 -198 -138 -262 -57 -54 -51
-59 30 -18 164 81 258 234 257 417 -2 293 -262 506 -551 449z"/>
<path d="M4479 6971 c-31 -10 -66 -25 -79 -34 -21 -14 -18 -15 39 -10 74 7
168 -10 241 -45 68 -32 178 -139 209 -205 90 -188 58 -387 -87 -534 -42 -42
-49 -53 -31 -48 59 18 127 62 179 114 242 242 146 651 -178 760 -79 27 -213
28 -293 2z"/>
<path d="M5961 6966 c-91 -35 -95 -44 -14 -39 231 17 444 -155 484 -389 22
-136 -25 -281 -128 -390 -47 -49 -53 -59 -33 -53 104 31 209 125 265 237 33
69 38 88 43 171 5 104 -10 176 -55 259 -37 69 -130 153 -210 191 -62 29 -78
32 -178 34 -96 3 -118 0 -174 -21z"/>
<path d="M3148 5120 c-106 -18 -209 -104 -248 -207 -20 -54 -20 -61 -18 -2231
l3 -2177 24 -50 c32 -63 93 -124 156 -156 l50 -24 3542 -3 3542 -2 54 20 c77
29 140 88 179 168 l33 67 3 1425 c3 1482 0 1640 -38 1823 -112 539 -487 997
-997 1217 -111 47 -233 84 -378 112 l-110 22 -2875 2 c-1581 1 -2896 -2 -2922
-6z m1507 -682 c3 -13 88 -491 189 -1063 169 -955 235 -1345 266 -1578 7 -48
15 -87 19 -87 4 0 15 53 25 117 54 366 431 2515 451 2571 3 9 78 12 328 12
l323 0 163 -902 c156 -866 249 -1403 287 -1672 10 -70 22 -126 26 -126 4 0 8
3 8 8 0 21 64 446 90 600 39 227 369 2090 375 2120 l5 22 1035 0 1035 0 0
-295 0 -295 -575 0 -575 0 0 -430 0 -430 355 0 355 0 0 -285 0 -285 -355 0
-355 0 0 -460 0 -460 600 0 600 0 -2 -292 -3 -293 -907 -3 -908 -2 -2 1357 -3
1358 -48 -575 -48 -575 -171 -770 c-94 -424 -176 -776 -181 -782 -7 -10 -85
-13 -328 -13 l-319 0 -10 23 c-9 20 -283 1282 -329 1517 -48 245 -131 844
-131 950 0 5 -4 10 -8 10 -4 0 -13 -59 -20 -131 -16 -163 -63 -505 -97 -699
-21 -121 -335 -1597 -351 -1652 -5 -17 -29 -18 -330 -18 l-324 0 -10 23 c-5
12 -183 798 -395 1747 -213 949 -389 1733 -391 1743 -5 16 15 17 315 17 l321
0 5 -22z"/>
<path d="M820 2700 c0 -1331 3 -2420 8 -2420 4 0 407 232 897 515 l890 514 0
1387 0 1387 -880 509 c-484 280 -888 513 -897 519 -17 9 -18 -108 -18 -2411z
m1030 1389 l445 -257 2 -969 1 -968 -119 875 -120 875 -387 383 c-345 342
-381 380 -327 351 33 -18 260 -149 505 -290z"/>
</g>
</svg>
